<?xml version="1.0" encoding="iso-8859-1"?>
<!-- Generator: Adobe Illustrator 24.0.0, SVG Export Plug-In . SVG Version: 6.00 Build 0)  -->
<svg version="1.1" id="Layer_1" xmlns="http://www.w3.org/2000/svg" xmlns:xlink="http://www.w3.org/1999/xlink" x="0px" y="0px"
	 viewBox="0 0 50 50" style="enable-background:new 0 0 50 50;" xml:space="preserve">
<path style="fill:none;stroke:#000000;stroke-width:2;stroke-linecap:round;stroke-linejoin:round;stroke-miterlimit:10;" d="
	M45.85,22.47c-0.04-0.38-0.1-0.75-0.17-1.12c-0.42-2.45-1.28-4.77-2.49-6.85c-0.28-0.49-0.58-0.97-0.9-1.43
	c-0.97-1.4-2.1-2.67-3.36-3.79c-0.14-0.13-0.28-0.25-0.43-0.37c-1.15-0.97-2.41-1.81-3.74-2.5c-0.83-0.44-1.69-0.83-2.58-1.14
	c-0.7-0.27-1.42-0.48-2.16-0.66C28.42,4.21,26.73,4,25,4s-3.42,0.21-5.02,0.61C19.24,4.79,18.52,5,17.82,5.27
	c-0.89,0.31-1.75,0.7-2.58,1.14c-1.33,0.69-2.59,1.53-3.74,2.5c-0.15,0.12-0.29,0.24-0.43,0.37c-1.26,1.12-2.39,2.39-3.36,3.79
	c-0.32,0.46-0.62,0.94-0.9,1.43c-1.21,2.08-2.07,4.4-2.49,6.85c-0.07,0.37-0.13,0.74-0.17,1.12C4.05,23.3,4,24.14,4,25
	s0.05,1.7,0.15,2.53c0.04,0.38,0.1,0.75,0.17,1.12c0.42,2.45,1.28,4.77,2.49,6.85c0.28,0.49,0.58,0.97,0.9,1.43
	c0.97,1.4,2.1,2.66,3.36,3.79c0.14,0.13,0.28,0.25,0.43,0.37c1.15,0.97,2.41,1.81,3.74,2.5c0.83,0.44,1.69,0.83,2.58,1.14
	c0.7,0.27,1.42,0.48,2.16,0.66C21.58,45.79,23.27,46,25,46s3.42-0.21,5.02-0.61c0.74-0.18,1.46-0.39,2.16-0.66
	c0.89-0.31,1.75-0.7,2.58-1.14c1.33-0.69,2.59-1.53,3.74-2.5c0.15-0.12,0.29-0.24,0.43-0.37c1.26-1.13,2.39-2.39,3.36-3.79
	c0.32-0.46,0.62-0.94,0.9-1.43c1.21-2.08,2.07-4.4,2.49-6.85c0.07-0.37,0.13-0.74,0.17-1.12C45.95,26.7,46,25.86,46,25
	S45.95,23.3,45.85,22.47z M39.03,30.32c-0.29,0.76-0.63,1.49-1.04,2.18c-0.2,0.35-0.41,0.69-0.64,1.02c-0.69,1-1.5,1.91-2.4,2.71
	c-0.1,0.09-0.2,0.18-0.31,0.26c-0.82,0.7-1.72,1.29-2.67,1.79c-0.59,0.32-1.21,0.59-1.84,0.82c-0.5,0.19-1.01,0.34-1.54,0.47
	C27.44,39.85,26.24,40,25,40s-2.44-0.15-3.59-0.43c-0.53-0.13-1.04-0.28-1.54-0.47c-0.63-0.23-1.25-0.5-1.84-0.82
	c-0.95-0.5-1.85-1.09-2.67-1.79c-0.11-0.08-0.21-0.17-0.31-0.26c-0.9-0.8-1.71-1.71-2.4-2.71c-0.23-0.33-0.44-0.67-0.64-1.02
	c-0.41-0.69-0.75-1.42-1.03-2.18c-0.34-0.87-0.6-1.77-0.76-2.71c-0.04-0.27-0.08-0.53-0.11-0.8C10.04,26.22,10,25.61,10,25
	s0.04-1.22,0.11-1.81c0.03-0.27,0.07-0.53,0.11-0.8c0.16-0.94,0.42-1.84,0.76-2.71c0.28-0.76,0.62-1.49,1.03-2.18
	c0.2-0.35,0.41-0.69,0.64-1.02c0.69-1,1.5-1.91,2.4-2.71c0.1-0.09,0.2-0.18,0.31-0.26c0.82-0.7,1.72-1.29,2.67-1.79
	c0.59-0.32,1.21-0.59,1.84-0.82c0.5-0.19,1.01-0.34,1.54-0.47C22.56,10.15,23.76,10,25,10s2.44,0.15,3.59,0.43
	c0.53,0.13,1.04,0.28,1.54,0.47c0.63,0.23,1.25,0.5,1.84,0.82c0.95,0.5,1.85,1.09,2.67,1.79c0.11,0.08,0.21,0.17,0.31,0.26
	c0.9,0.8,1.71,1.71,2.4,2.71c0.23,0.33,0.44,0.67,0.64,1.02c0.41,0.69,0.75,1.42,1.04,2.18c0.34,0.87,0.59,1.77,0.75,2.71
	c0.04,0.27,0.08,0.53,0.11,0.8C39.96,23.78,40,24.39,40,25s-0.04,1.22-0.11,1.81c-0.03,0.27-0.07,0.53-0.11,0.8
	C39.62,28.55,39.37,29.45,39.03,30.32z"/>
<line style="fill:none;stroke:#000000;stroke-width:2;stroke-linecap:round;stroke-linejoin:round;stroke-miterlimit:10;" x1="25" y1="10" x2="25" y2="4"/>
<line style="fill:none;stroke:#000000;stroke-width:2;stroke-linecap:round;stroke-linejoin:round;stroke-miterlimit:10;" x1="25" y1="46" x2="25" y2="40"/>
<line style="fill:none;stroke:#000000;stroke-width:2;stroke-linecap:round;stroke-linejoin:round;stroke-miterlimit:10;" x1="15.36" y1="13.51" x2="11.5" y2="8.91"/>
<line style="fill:none;stroke:#000000;stroke-width:2;stroke-linecap:round;stroke-linejoin:round;stroke-miterlimit:10;" x1="38.5" y1="41.09" x2="34.64" y2="36.49"/>
<line style="fill:none;stroke:#000000;stroke-width:2;stroke-linecap:round;stroke-linejoin:round;stroke-miterlimit:10;" x1="10.22" y1="22.39" x2="4.32" y2="21.35"/>
<line style="fill:none;stroke:#000000;stroke-width:2;stroke-linecap:round;stroke-linejoin:round;stroke-miterlimit:10;" x1="45.68" y1="28.65" x2="39.78" y2="27.61"/>
<line style="fill:none;stroke:#000000;stroke-width:2;stroke-linecap:round;stroke-linejoin:round;stroke-miterlimit:10;" x1="12.01" y1="32.5" x2="6.81" y2="35.5"/>
<line style="fill:none;stroke:#000000;stroke-width:2;stroke-linecap:round;stroke-linejoin:round;stroke-miterlimit:10;" x1="43.19" y1="14.5" x2="37.99" y2="17.5"/>
<line style="fill:none;stroke:#000000;stroke-width:2;stroke-linecap:round;stroke-linejoin:round;stroke-miterlimit:10;" x1="19.87" y1="39.1" x2="17.82" y2="44.73"/>
<line style="fill:none;stroke:#000000;stroke-width:2;stroke-linecap:round;stroke-linejoin:round;stroke-miterlimit:10;" x1="32.18" y1="5.27" x2="30.13" y2="10.9"/>
<line style="fill:none;stroke:#000000;stroke-width:2;stroke-linecap:round;stroke-linejoin:round;stroke-miterlimit:10;" x1="32.18" y1="44.73" x2="30.13" y2="39.1"/>
<line style="fill:none;stroke:#000000;stroke-width:2;stroke-linecap:round;stroke-linejoin:round;stroke-miterlimit:10;" x1="19.87" y1="10.9" x2="17.82" y2="5.27"/>
<line style="fill:none;stroke:#000000;stroke-width:2;stroke-linecap:round;stroke-linejoin:round;stroke-miterlimit:10;" x1="43.19" y1="35.5" x2="37.99" y2="32.5"/>
<line style="fill:none;stroke:#000000;stroke-width:2;stroke-linecap:round;stroke-linejoin:round;stroke-miterlimit:10;" x1="12.01" y1="17.5" x2="6.81" y2="14.5"/>
<line style="fill:none;stroke:#000000;stroke-width:2;stroke-linecap:round;stroke-linejoin:round;stroke-miterlimit:10;" x1="45.68" y1="21.35" x2="39.78" y2="22.39"/>
<line style="fill:none;stroke:#000000;stroke-width:2;stroke-linecap:round;stroke-linejoin:round;stroke-miterlimit:10;" x1="10.22" y1="27.61" x2="4.32" y2="28.65"/>
<line style="fill:none;stroke:#000000;stroke-width:2;stroke-linecap:round;stroke-linejoin:round;stroke-miterlimit:10;" x1="38.5" y1="8.91" x2="34.64" y2="13.51"/>
<line style="fill:none;stroke:#000000;stroke-width:2;stroke-linecap:round;stroke-linejoin:round;stroke-miterlimit:10;" x1="15.36" y1="36.49" x2="11.5" y2="41.09"/>
<line style="fill:none;stroke:#000000;stroke-width:2;stroke-linecap:round;stroke-linejoin:round;stroke-miterlimit:10;" x1="25" y1="16" x2="25" y2="10"/>
<line style="fill:none;stroke:#000000;stroke-width:2;stroke-linecap:round;stroke-linejoin:round;stroke-miterlimit:10;" x1="25" y1="40" x2="25" y2="34"/>
<line style="fill:none;stroke:#000000;stroke-width:2;stroke-linecap:round;stroke-linejoin:round;stroke-miterlimit:10;" x1="16.439" y1="22.22" x2="10.73" y2="20.36"/>
<line style="fill:none;stroke:#000000;stroke-width:2;stroke-linecap:round;stroke-linejoin:round;stroke-miterlimit:10;" x1="39.27" y1="29.64" x2="33.561" y2="27.78"/>
<line style="fill:none;stroke:#000000;stroke-width:2;stroke-linecap:round;stroke-linejoin:round;stroke-miterlimit:10;" x1="19.634" y1="32.387" x2="16.18" y2="37.14"/>
<line style="fill:none;stroke:#000000;stroke-width:2;stroke-linecap:round;stroke-linejoin:round;stroke-miterlimit:10;" x1="33.82" y1="12.86" x2="30.289" y2="17.72"/>
<line style="fill:none;stroke:#000000;stroke-width:2;stroke-linecap:round;stroke-linejoin:round;stroke-miterlimit:10;" x1="33.82" y1="37.14" x2="30.289" y2="32.28"/>
<line style="fill:none;stroke:#000000;stroke-width:2;stroke-linecap:round;stroke-linejoin:round;stroke-miterlimit:10;" x1="19.634" y1="17.613" x2="16.18" y2="12.86"/>
<line style="fill:none;stroke:#000000;stroke-width:2;stroke-linecap:round;stroke-linejoin:round;stroke-miterlimit:10;" x1="39.27" y1="20.36" x2="33.561" y2="22.22"/>
<line style="fill:none;stroke:#000000;stroke-width:2;stroke-linecap:round;stroke-linejoin:round;stroke-miterlimit:10;" x1="16.439" y1="27.78" x2="10.73" y2="29.64"/>
<circle style="fill:none;stroke:#000000;stroke-width:2;stroke-linecap:round;stroke-linejoin:round;stroke-miterlimit:10;" cx="25" cy="25" r="9"/>
</svg>